<svg xmlns="http://www.w3.org/2000/svg" width="1918" height="524" viewBox="0 0 1918 524">
  <rect id="bac" width="1047" height="524" transform="translate(871)" fill="#fff"/>
  <path id="Path_19" data-name="Path 19" d="M5147-2744h929.106s160.941,74.278,249.086,205.186S6441.586-2220,6441.586-2220L5147-2220.367Z" transform="translate(-5066 2744)" fill="#ff7143"/>
  <path id="Path_57" data-name="Path 57" d="M5147-2744h929.106s160.941,74.278,249.086,205.186S6441.586-2220,6441.586-2220L5147-2220.367Z" transform="translate(-5147 2744)" fill="#253239"/>
  <g id="undraw_team_up_re_84ok_1_" data-name="undraw_team_up_re_84ok(1)" transform="translate(1377.469 49.154)">
    <path id="Path_20" data-name="Path 20" d="M116.744,88.744l-3.069,16.111,15.3,4.313-1.9-17.2Z" transform="translate(-26.463 -20.659)" fill="#a0616a"/>
    <path id="Path_21" data-name="Path 21" d="M0,523.168a.91.91,0,0,0,.913.913H401.618a.913.913,0,1,0,0-1.826H.913A.91.91,0,0,0,0,523.168Z" transform="translate(0 -121.577)" fill="#3f3d56"/>
    <g id="Group_8" data-name="Group 8" transform="translate(82.198 182.065)">
      <path id="Path_22" data-name="Path 22" d="M298.329,238.309H140.538a32.4,32.4,0,0,0-32.4,32.4V423.715a32.4,32.4,0,0,0,32.4,32.4H298.329a32.4,32.4,0,0,0,32.4-32.4V270.708a32.4,32.4,0,0,0-32.4-32.4h0Z" transform="translate(-107.372 -237.541)" fill="#fff"/>
      <path id="Path_23" data-name="Path 23" d="M298.1,456.648H140.305a33.2,33.2,0,0,1-33.166-33.166V270.475a33.2,33.2,0,0,1,33.166-33.166H298.1a33.2,33.2,0,0,1,33.166,33.166V423.482A33.2,33.2,0,0,1,298.1,456.648Zm-157.791-217.8a31.668,31.668,0,0,0-31.632,31.632V423.482a31.667,31.667,0,0,0,31.632,31.632H298.1a31.667,31.667,0,0,0,31.632-31.632V270.475A31.668,31.668,0,0,0,298.1,238.843Z" transform="translate(-107.139 -237.309)" fill="#3f3d56"/>
      <path id="Path_24" data-name="Path 24" d="M350.211,321.809H286.788a4.879,4.879,0,1,1,0-9.757h63.423a4.879,4.879,0,0,1,0,9.757h0Z" transform="translate(-147.824 -254.708)" fill="#ff7143"/>
      <path id="Path_25" data-name="Path 25" d="M273.82,373.067H212.17a2.819,2.819,0,1,1,0-5.637H273.82a2.819,2.819,0,0,1,0,5.637Z" transform="translate(-130.933 -267.6)" fill="#ff7143"/>
      <rect id="Rectangle_42" data-name="Rectangle 42" width="35.674" height="4.574" rx="0.31" transform="translate(20.315 11.246)" fill="#ff7143"/>
      <circle id="Ellipse_8" data-name="Ellipse 8" cx="3.659" cy="3.659" r="3.659" transform="translate(170.649 8.502)" fill="#3f3d56"/>
      <circle id="Ellipse_9" data-name="Ellipse 9" cx="3.659" cy="3.659" r="3.659" transform="translate(180.711 8.502)" fill="#3f3d56"/>
      <circle id="Ellipse_10" data-name="Ellipse 10" cx="3.659" cy="3.659" r="3.659" transform="translate(190.772 8.502)" fill="#3f3d56"/>
      <path id="Path_26" data-name="Path 26" d="M149.868,394.168a.91.91,0,0,0,.913.913H307.514a.913.913,0,0,0,0-1.826H150.781a.91.91,0,0,0-.913.913Z" transform="translate(-117.086 -273.612)" fill="#3f3d56"/>
    </g>
    <g id="Group_12" data-name="Group 12" transform="translate(74.289 40.912)">
      <path id="uuid-d0b76542-8f08-4363-846d-0cc3b89caf22-161" d="M206.784,100.172c3.337-2.757,7.464-3.27,9.218-1.146s.471,6.08-2.867,8.837a10.833,10.833,0,0,1-4.571,2.3l-14.285,11.5-5.255-6.819,14.641-10.616a10.833,10.833,0,0,1,3.12-4.057h0Z" transform="translate(-118.292 -63.659)" fill="#a0616a"/>
      <path id="Path_27" data-name="Path 27" d="M104.553,128.693c-.007-.509,0-4.946,3.283-7.751,3.774-3.222,9.1-1.918,10.967-1.46,4.314,1.057,4.668,2.907,8.72,4.809,7.58,3.558-1.918,1.737,2.593.6,1.561-.395,24.023-1.953,29.614-5.394,10.874-6.693,18.283-10.751,18.283-10.751l4.844,9.687A86.335,86.335,0,0,1,166,135.382c-10.111,7.4-15.167,11.1-22.85,12.53-.662.123-16.934,2.9-30.04-6.89-2.989-2.233-8.467-6.326-8.552-12.329h0Z" transform="translate(-98.628 -66.226)" fill="#e6e6e6"/>
      <circle id="Ellipse_11" data-name="Ellipse 11" cx="16.873" cy="16.873" r="16.873" transform="translate(4.076 4.085)" fill="#a0616a"/>
      <g id="Group_9" data-name="Group 9" transform="translate(32.03 78.479)">
        <path id="Path_28" data-name="Path 28" d="M288.381,223,271,205.213l-8.969,9.357,12.946,17.055,12.842,1.468Z" transform="translate(-167.318 -167.162)" fill="#a0616a"/>
        <path id="Path_29" data-name="Path 29" d="M160.419,178.1c1.016.084,4.246.732,7.333-.967A10.03,10.03,0,0,0,171.3,173.7c4.528-6.8,21.905-17.4,37.5-18.056,3.532-.148,5.857.261,7.97,1.363,3,1.562,4.192,3.8,7.995,9.04,2.08,2.867,4.381,5.568,6.486,8.416,12.323,16.676,16.994,17.985,16.517,23.332-.53,5.932-6.927,11.56-11.179,10.91-1.741-.266-2.416-1.477-4.742-3.928-6.821-7.187-9.644-5.859-14.5-11.364-5.67-6.427-4.928-11.756-7.886-11.962-2.743-.191-3.909,4.355-9.766,10.394-2.68,2.763-4.588,4.031-10.4,8.064-22.641,15.707-23,16.811-27.571,18.063-2,.548-16.188,4.438-21.242-1.752-7.91-9.687,10.776-38.883,19.934-38.122h0Z" transform="translate(-138.579 -155.617)" fill="#2f2e41"/>
        <path id="Path_30" data-name="Path 30" d="M284.433,231.367c1.278-.574,2.772-1.245,3.253-2.788a3.709,3.709,0,0,0-.534-3.221c-.776-1.026-1.924-1.162-1.878-1.343.071-.277,2.786-.168,5.767.885a23.073,23.073,0,0,1,6.353,3.661c2.6,2.028,2.248,2.434,3.876,3.6,5,3.589,9.688.76,12.394,4.126a5.331,5.331,0,0,1,1.05,4.634c-.882,2.995-5.173,4.025-7.518,4.557-5.648,1.281-9.923.235-14.386-.517-15.18-2.558-23.71-.228-24.851-3.745-.216-.666.135-.609,1.305-5.493,1.155-4.821,1.117-6.145,2.1-6.531,1.481-.581,2.475,2.062,6.206,2.967a10.572,10.572,0,0,0,6.862-.8Z" transform="translate(-168.683 -171.509)" fill="#2f2e41"/>
      </g>
      <g id="Group_10" data-name="Group 10" transform="translate(20.898 107.826)">
        <path id="Path_31" data-name="Path 31" d="M250.929,296.816l-4.391-24.476-12.677,2.705L235,296.427l9.8,8.426Z" transform="translate(-149.628 -212.136)" fill="#a0616a"/>
        <path id="Path_32" data-name="Path 32" d="M162,195.231c.794.641,3.1,2.99,6.611,3.318a10.03,10.03,0,0,0,4.866-.844c7.565-3.084,27.9-2.1,41.17,6.118,3.005,1.861,4.7,3.505,5.829,5.6,1.6,2.975,1.336,5.5,1.539,11.969.111,3.54.5,7.067.641,10.606.832,20.718,3.963,24.425.565,28.581-3.769,4.611-12.223,5.675-15.376,2.75-1.291-1.2-1.17-2.578-1.718-5.913-1.609-9.777-4.689-10.263-5.617-17.545-1.083-8.5,2.524-12.495.192-14.326-2.163-1.7-5.68,1.409-13.918,3.117-3.769.782-6.06.759-13.136.832-27.554.283-28.473.994-32.957-.536-1.962-.669-15.887-5.418-16.593-13.378-1.1-12.457,30.751-26.123,37.9-20.351h0Z" transform="translate(-124.069 -193.869)" fill="#2f2e41"/>
        <path id="Path_33" data-name="Path 33" d="M241.595,301.908c1.38.243,2.993.527,4.257-.48a3.709,3.709,0,0,0,1.367-2.965c-.066-1.285-.94-2.042-.8-2.166.214-.189,2.4,1.425,4.275,3.971a23.074,23.074,0,0,1,3.2,6.6c1.01,3.136.493,3.276,1.184,5.158,2.121,5.777,7.59,6.07,7.938,10.374a5.331,5.331,0,0,1-1.734,4.424c-2.412,1.982-6.541.426-8.78-.451-5.393-2.111-8.343-5.377-11.614-8.506-11.125-10.641-19.49-13.5-18.46-17.054.195-.672.454-.428,4.165-3.813,3.663-3.34,4.375-4.457,5.406-4.224,1.552.351.89,3.1,3.469,5.94a10.572,10.572,0,0,0,6.125,3.2h0Z" transform="translate(-146.947 -216.886)" fill="#2f2e41"/>
      </g>
      <path id="Path_34" data-name="Path 34" d="M120.571,77.509c.657-2.35-.168-3.206.673-4.261,0,0,.338-.424,3.364-1.57h0c-.893-5.179-.224-6.055-.224-6.055a3.8,3.8,0,0,1,3.364-1.121c2.222.279,2.615,2.288,4.037,2.242,1.964-.062,4.319-3.993,3.588-7.4-.6-2.779-3.168-4.843-3.812-4.485s-2.94-1.211-3.812-.9c-.6.214-3.4-.071-4.036.224-.694.322-2.683,2.328-2.874,2.076-1.321-1.756-1.293-2.37-2.06-2.748-1.358-.671-2.835.569-5.382,1.794-5.24,2.52-6.774,1.017-9.194,3.139-1.223,1.072-1.878,3.121-3.139,7.176-1.764,5.67-2.646,8.505-1.794,11.212.869,2.761,2.148,2.16,4.036,6.055,2.1,4.336,1.378,6.856,3.364,7.849a4.217,4.217,0,0,0,4.933-1.121c1.595-2.4-2.527-5.64-1.121-9.418.863-2.319,3.525-4.078,5.158-3.588,1.846.554,1.982,3.863,3.139,3.812.991-.044,1.68-2.506,1.794-2.915h0Z" transform="translate(-97.321 -53.326)" fill="#2f2e41"/>
      <path id="Path_35" data-name="Path 35" d="M107.414,105.429c3.453-3.871,17.517.136,18.837,6.279.543,2.527-1.461,3.594-.9,6.5.826,4.255,5.5,3.965,8.97,8.3,4.926,6.15-.149,12.162,5.382,22.425a18.17,18.17,0,0,0,4.261,5.83c4.779,4.105,9.227,2.7,11.661,6.5,1.82,2.846,1.072,6.354.9,7.176-.718,3.37-2.665,4.191-4.036,6.952-2.282,4.594.3,7.966.449,13.455.184,6.867-3.466,16.386-10.764,19.51-8.2,3.509-18.088-2.3-22.873-8.073-2.855-3.443-3.684-6.619-4.933-10.54-5.583-17.521-8.737-15.936-13.006-29.825-4.881-15.877-5.84-34.479,0-40.365a16.81,16.81,0,0,0,4.261-5.83c1.825-4.369.248-6.564,1.794-8.3h0Z" transform="translate(-96.947 -65.1)" fill="#e6e6e6"/>
      <g id="Group_11" data-name="Group 11" transform="translate(0 54.847)">
        <path id="uuid-35da8825-ceb1-46f8-a8e3-884fcc945dd4-162" d="M170.544,218.076c2.677,3.4,3.092,7.54.927,9.243s-6.089.327-8.767-3.076a10.832,10.832,0,0,1-2.188-4.624l-11.161-14.555,5.767-4.4,11.44,14.2a10.833,10.833,0,0,1,3.981,3.215h0Z" transform="translate(-109.058 -142.472)" fill="#a0616a"/>
        <path id="Path_36" data-name="Path 36" d="M117.443,125.051c.5-.111,4.842-1.012,8.258,1.632,3.924,3.037,3.734,8.516,3.667,10.438-.154,4.439-1.894,5.163-2.929,9.518-1.936,8.147,1.751,15.718,3.788,19.9a43.442,43.442,0,0,0,7.48,10.65,94.447,94.447,0,0,0,16.6,14.163l-8.407,7.473s-13.392-4.082-22.466-12.259c-9.308-8.389-23.622-38.068-26.589-45.3-.256-.623,3.364,9.5,10.276-5.329,1.576-3.382,4.465-9.579,10.324-10.888h0Z" transform="translate(-96.83 -124.815)" fill="#e6e6e6"/>
      </g>
    </g>
    <g id="Group_14" data-name="Group 14" transform="translate(144.459 255.487)">
      <path id="uuid-ba1531a6-e7ab-4297-b996-1d676f43fe3f-163" d="M271.282,420.859c-5.344.819-9.253,4.24-8.731,7.641s5.276,5.493,10.622,4.673a13.529,13.529,0,0,0,5.941-2.352l22.6-3.756-1.508-8.932-22.547,3.19a13.53,13.53,0,0,0-6.375-.463Z" transform="translate(-205.568 -352.824)" fill="#ffb6b6"/>
      <path id="Path_37" data-name="Path 37" d="M373.477,385.122l-8.762,18.593-44.049,14.829-36.551,1.949-.915-8.779,39.613-8.283,40.649-19.209Z" transform="translate(-210.385 -344.931)" fill="#e6e6e6"/>
      <path id="Path_38" data-name="Path 38" d="M289.5,475.029l-7.867,19.9-10.18-6.941,6.016-20.824Z" transform="translate(-207.651 -364.238)" fill="#ffb6b6"/>
      <path id="Path_39" data-name="Path 39" d="M245.834,467.765l-20.824,19.9,8.329,8.792L254.626,479.8Z" transform="translate(-196.839 -364.379)" fill="#ffb6b6"/>
      <path id="Path_40" data-name="Path 40" d="M398.936,379.672l-.232-1.62-5.321-10.412L375.8,372.269l3.239,14.344Z" transform="translate(-231.942 -341.071)" fill="#ffb6b6"/>
      <path id="Path_41" data-name="Path 41" d="M368.645,461.355l.541,6.95s2.236,29.144-15.811,31.458-25.914,4.627-36.557-13.42l-16.659-29.616-9.73,11.578-12.944-10.19s9.255-36.094,16.659-37.483a16.9,16.9,0,0,1,2.762-.279,19.066,19.066,0,0,1,15.575,7.783l21,28.127,7.635-3.471,27.534,8.561h0Z" transform="translate(-209.055 -353.341)" fill="#2f2e41"/>
      <path id="Path_42" data-name="Path 42" d="M259.139,499.758l4.165-7.867,12.031,8.329s2.776,10.18-1.388,11.569-15.733-.463-15.733-.463-21.286,4.627-21.749.463,9.718-5.09,9.718-5.09l12.957-6.941h0Z" transform="translate(-199.502 -369.995)" fill="#2f2e41"/>
      <path id="Path_43" data-name="Path 43" d="M307.021,479.041,274.86,458.776l-16.428,14.711-11.106-12.957s20.361-30.079,26.377-31.467a155.044,155.044,0,0,1,15.733-2.314l29.616,27.3-12.031,24.988Z" transform="translate(-202.034 -354.831)" fill="#2f2e41"/>
      <path id="Path_44" data-name="Path 44" d="M216,491.288l10.643,11.569-1.4,1.2s-2.761,12.026-9.24,7.958-6.941-4.994-6.941-4.994-18.51,4.165-20.361-3.239,3.239-6.016,3.239-6.016l4.622,2.776L216,491.288h0Z" transform="translate(-188.292 -369.855)" fill="#2f2e41"/>
      <circle id="Ellipse_12" data-name="Ellipse 12" cx="14.808" cy="14.808" r="14.808" transform="translate(134.602 6.672)" fill="#ffb6b6"/>
      <path id="Path_45" data-name="Path 45" d="M373.072,386.484l21.286-6.478s8.329,19.435,6.941,28.228-14.036,50.68-14.036,50.68L359.189,443.4s-.463-9.255-1.851-13.42-5.784-16.89,3.933-27.534,11.8-15.965,11.8-15.965h0Z" transform="translate(-227.132 -343.949)" fill="#e6e6e6"/>
      <g id="Group_13" data-name="Group 13" transform="translate(95.985 51.871)">
        <path id="uuid-375aaccb-22f9-42b6-a352-baabb12db8d2-164" d="M316.506,508.674c-3.464,4.15-4.131,9.3-1.489,11.506s7.59.626,11.055-3.526a13.529,13.529,0,0,0,2.9-5.695l14.456-17.77-7.042-5.7L321.592,504.8a13.53,13.53,0,0,0-5.086,3.871h0Z" transform="translate(-313.4 -420.842)" fill="#ffb6b6"/>
        <path id="Path_46" data-name="Path 46" d="M383.75,400.619l5.031,19.929-24.625,39.418-25.138,25.265-8.149-6.76,25.353-31.545,19.217-40.644Z" transform="translate(-317.467 -400.619)" fill="#e6e6e6"/>
      </g>
      <path id="Path_47" data-name="Path 47" d="M364.456,351.944c3.8-.009,4.013.016,4.627,0,4.71-.124,5.942-1.977,8.329-1.851,4.261.226-1.363,21.59-3.7,31.467-2.294,9.687,5.459,18.367,6.016,18.973,7.869,8.558,21.691,10.123,24.063,6.478,1.92-2.95-4.884-7.435-3.239-13.882,1.608-6.3,9.031-5.631,11.106-11.569,2.173-6.218-5.13-9.354-9.718-24.526-2.635-8.713-2.169-10.337-4.627-15.733-6.572-14.425-38.785-8.283-35.169,5.09.7,2.587-1.162,5.561,2.314,5.553h0Z" transform="translate(-228.697 -333.008)" fill="#2f2e41"/>
    </g>
    <g id="Group_15" data-name="Group 15" transform="translate(163.893)">
      <path id="Path_48" data-name="Path 48" d="M377.232,98.633H221.6a7.991,7.991,0,0,1-7.982-7.982V7.982A7.991,7.991,0,0,1,221.6,0H377.233a7.991,7.991,0,0,1,7.982,7.982V90.651a7.991,7.991,0,0,1-7.982,7.982Z" transform="translate(-213.622)" fill="#fff"/>
      <path id="Path_49" data-name="Path 49" d="M377.232,98.633H221.6a7.991,7.991,0,0,1-7.982-7.982V7.982A7.991,7.991,0,0,1,221.6,0H377.233a7.991,7.991,0,0,1,7.982,7.982V90.651a7.991,7.991,0,0,1-7.982,7.982ZM221.6,1.333a6.656,6.656,0,0,0-6.649,6.649V90.651A6.656,6.656,0,0,0,221.6,97.3H377.233a6.656,6.656,0,0,0,6.649-6.649V7.982a6.656,6.656,0,0,0-6.649-6.649H221.6Z" transform="translate(-213.622)" fill="#3f3d56"/>
      <circle id="Ellipse_13" data-name="Ellipse 13" cx="1.999" cy="1.999" r="1.999" transform="translate(149.599 5.998)" fill="#3f3d56"/>
      <circle id="Ellipse_14" data-name="Ellipse 14" cx="1.999" cy="1.999" r="1.999" transform="translate(154.93 5.998)" fill="#3f3d56"/>
      <circle id="Ellipse_15" data-name="Ellipse 15" cx="1.999" cy="1.999" r="1.999" transform="translate(160.263 5.998)" fill="#3f3d56"/>
      <path id="Path_50" data-name="Path 50" d="M228.086,52.554a1,1,0,0,0-1,1,1.009,1.009,0,0,0,1,1h149.6a1,1,0,0,0,1-1,1.009,1.009,0,0,0-1-1Z" transform="translate(-216.757 -12.234)" fill="#e6e6e6"/>
      <path id="Path_51" data-name="Path 51" d="M358.924,52.119v2.666H227.985a1.343,1.343,0,0,1-1.333-1.333,1.337,1.337,0,0,1,1.333-1.333H358.924Z" transform="translate(-216.656 -12.133)" fill="#ff7143"/>
      <path id="Path_52" data-name="Path 52" d="M416.357,43.987H403.028a2.666,2.666,0,1,1,0-5.332h13.329a2.666,2.666,0,1,1,0,5.332Z" transform="translate(-257.094 -8.999)" fill="#e6e6e6"/>
      <path id="Path_53" data-name="Path 53" d="M288.514,25.745h-59.63a2.666,2.666,0,0,1,0-5.332h59.63a2.666,2.666,0,0,1,0,5.332Z" transform="translate(-216.555 -4.752)" fill="#e6e6e6"/>
      <path id="Path_54" data-name="Path 54" d="M228.086,91.643a1,1,0,0,0-1,1,1.009,1.009,0,0,0,1,1h149.6a1,1,0,0,0,1-1,1.009,1.009,0,0,0-1-1Z" transform="translate(-216.757 -21.334)" fill="#e6e6e6"/>
      <path id="Path_55" data-name="Path 55" d="M307.609,91.209v2.666H227.986a1.343,1.343,0,0,1-1.333-1.333,1.337,1.337,0,0,1,1.333-1.333Z" transform="translate(-216.656 -21.233)" fill="#ff7143"/>
      <path id="Path_56" data-name="Path 56" d="M416.357,83.076H403.028a2.666,2.666,0,1,1,0-5.332h13.329a2.666,2.666,0,1,1,0,5.332Z" transform="translate(-257.094 -18.098)" fill="#e6e6e6"/>
    </g>
  </g>
</svg>

